<svg viewBox="0 0 96 96" xmlns="http://www.w3.org/2000/svg" xmlns:xlink="http://www.w3.org/1999/xlink" id="Icons_SupplyAndDemand_LTR_M" overflow="hidden"><style>
.MsftOfcResponsive_Fill_f16e5b {
 fill:#F16E5B; 
}
</style>
<g id="Icons"><path d="M76.053 73.99 82 79.983C82.0039 79.9869 82.0038 79.9933 81.9999 79.9971 81.998 79.9989 81.9956 80 81.993 80L16.043 80 16.043 14.023C16.0431 14.0175 16.0476 14.0131 16.0531 14.0131 16.0557 14.0132 16.0582 14.0142 16.06 14.016L22.044 20 23.458 18.586 15.033 10.16 6.618 18.575 8.032 19.99 14.025 14C14.0296 13.9961 14.0366 13.9967 14.0405 14.0013 14.0419 14.0029 14.0427 14.0049 14.043 14.007L14.043 82 81.989 82C81.9945 82.0001 81.9989 82.0046 81.9989 82.0101 81.9988 82.0127 81.9978 82.0152 81.996 82.017L76.044 88 77.458 89.414 85.882 80.989 77.467 72.574Z" class="MsftOfcResponsive_Fill_f16e5b" stroke="none" stroke-width="1" stroke-linecap="butt" stroke-linejoin="miter" stroke-miterlimit="4" fill="#F16E5B" fill-opacity="1"/><path d="M24.076 70C27.633 69.881 37.259 66.772 47.11 59.416 53.755 64.5738 61.573 68.0071 69.867 69.41L70.218 67.442C62.4222 66.1162 55.063 62.9233 48.769 58.136 58.5547 50.4402 65.9205 40.0922 69.988 28.326L68.1 27.674C64.1125 39.233 56.8551 49.3858 47.209 56.9 36.788 48.272 30.866 36.331 26.971 26.627L25.114 27.373C29.066 37.216 35.048 49.304 45.555 58.157 36.29 64.988 27.349 67.889 24.009 68Z" class="MsftOfcResponsive_Fill_f16e5b" stroke="none" stroke-width="1" stroke-linecap="butt" stroke-linejoin="miter" stroke-miterlimit="4" fill="#F16E5B" fill-opacity="1"/></g></svg>